<svg width="20" height="16" viewBox="0 0 20 16" fill="none" xmlns="http://www.w3.org/2000/svg">
<path d="M1.00082 15.4868L19.0008 15.4868C19.1831 15.4862 19.3617 15.436 19.5175 15.3414C19.6733 15.2469 19.8004 15.1116 19.885 14.9502C19.9697 14.7889 20.0087 14.6074 19.9979 14.4255C19.9871 14.2436 19.9269 14.0681 19.8238 13.9178L10.8238 0.9178C10.4508 0.3788 9.55282 0.3788 9.17882 0.9178L0.178818 13.9178C0.0746425 14.0677 0.0135519 14.2434 0.0021829 14.4256C-0.00918606 14.6078 0.0296016 14.7897 0.114332 14.9514C0.199062 15.1131 0.326493 15.2486 0.482782 15.3429C0.63907 15.4373 0.818238 15.4871 1.00082 15.4868Z" fill="black"/>
</svg>
