<svg width="123" height="226" viewBox="0 0 123 226" fill="none" xmlns="http://www.w3.org/2000/svg">
<path d="M91.7683 152.653C90.4257 149.946 89.5151 147.045 89.0695 144.055C87.8768 137.743 86.2649 131.542 84.6789 125.326C83.1611 119.271 81.8014 113.111 79.4066 107.329C77.0119 101.547 72.9789 96.5318 70.6905 90.6214C70.6732 90.5606 70.6325 90.5091 70.5772 90.4783C70.522 90.4475 70.4567 90.44 70.3959 90.4573C70.335 90.4747 70.2836 90.5155 70.2528 90.5708C70.222 90.626 70.2144 90.6913 70.2317 90.7522C71.5403 96.5207 74.4929 101.701 76.622 107.183C76.9336 107.989 77.2244 108.8 77.4983 109.632C77.1107 109.51 76.701 109.474 76.2981 109.528C75.8952 109.582 75.509 109.723 75.1668 109.943C74.2983 110.483 74.157 111.441 74.1568 110.118C74.1573 109.054 74.0911 107.99 73.9586 106.934C73.7719 105.484 73.2753 103.446 71.9193 102.614C68.5842 100.558 67.1218 104.244 67.5052 107.022C67.5765 107.616 67.7412 108.196 67.9933 108.739C67.5589 108.427 67.053 108.075 66.6425 107.741L66.576 107.692C64.5019 104.096 62.4625 100.596 60.4775 97.2073C60.4605 94.9651 61.334 92.8074 62.9061 91.2082C65.4485 88.4392 68.6047 88.4119 72.0838 88.1723C75.138 87.9711 78.2446 87.8752 80.7046 85.8212C82.8962 83.9865 83.3653 81.4323 82.819 78.7164C82.7915 78.6387 82.7405 78.5714 82.6731 78.524C82.6057 78.4765 82.5251 78.4512 82.4427 78.4516C82.3602 78.452 82.2799 78.478 82.2128 78.526C82.1458 78.5741 82.0953 78.6418 82.0684 78.7198C81.4847 83.0656 78.2891 82.9012 74.7025 83.2917C71.3026 83.6516 67.8051 83.5356 64.6471 84.9316C62.9712 85.7259 61.5183 86.9238 60.4187 88.4178C59.3191 89.9119 58.6073 91.6554 58.347 93.492C50.2939 79.8053 43.3885 68.4375 39.1813 61.593L40.0227 61.9095C41.8069 62.5813 45.4686 63.8833 47.1902 62.378C47.2757 62.3085 47.1805 62.1853 47.0902 62.2111C44.4225 62.9261 41.8688 61.609 39.4793 59.9972C42.794 59.4962 46.0169 58.5403 48.4256 56.2529C48.4604 56.243 48.4059 56.1833 48.4078 56.1903C46.2356 57.096 43.9297 57.6388 41.5821 57.7969C42.6097 57.1797 43.4964 56.3534 44.1845 55.3715C44.9561 54.2835 45.3526 52.9739 45.3141 51.6408C45.2756 50.3077 44.8042 49.0237 43.9712 47.9829C42.7601 46.366 40.8825 46.5026 39.5246 47.8066C39.7962 46.9493 40.0149 46.0761 40.1794 45.192C40.4017 43.7536 40.1192 42.2829 39.3799 41.0298C39.3482 40.9801 39.2987 40.9443 39.2415 40.9299C39.1843 40.9154 39.1238 40.9234 39.0722 40.9521C38.6861 41.14 38.3527 41.421 38.1021 41.7698C37.8727 42.0889 37.6751 42.4297 37.512 42.7873C37.6087 41.3683 37.1486 39.9677 36.2296 38.883C36.1925 38.8456 36.144 38.8216 36.0917 38.8148C36.0394 38.8079 35.9864 38.8186 35.9408 38.8451C34.9014 39.4474 33.9956 40.2554 33.2788 41.2197C33.3587 40.8662 33.4386 40.5127 33.5344 40.1621C33.749 39.3042 33.9954 38.4522 34.2239 37.5903C34.8845 35.1018 35.3807 32.352 33.8975 30.0685C33.8649 30.0154 33.8127 29.9772 33.7523 29.9621C33.6918 29.947 33.6278 29.9562 33.574 29.9878C32.7617 30.4009 32.1044 31.0654 31.7 31.8823C31.6861 31.8336 31.6723 31.785 31.6565 31.7293C31.5199 31.3962 31.3625 31.072 31.1852 30.7586C30.7861 30.0154 29.7083 28.9995 28.8475 29.7784L29.4325 28.1083C29.886 26.8876 30.1807 25.6137 30.3094 24.318C30.419 22.5352 30.2074 19.7015 28.4456 18.6324C28.019 18.3377 27.5031 18.2008 26.9864 18.2452C26.4697 18.2895 25.9844 18.5124 25.6138 18.8755C25.0754 19.3685 24.647 19.9696 24.3565 20.6394C24.1443 21.1885 24.3818 21.7598 24.2119 21.1091C24.042 20.4584 23.9583 19.9786 23.8349 19.4124C23.6692 18.6177 23.5274 17.0344 22.6384 16.6563C21.7493 16.2782 21.0556 18.2799 21.0827 18.7984C20.8427 17.1604 20.6476 15.2841 19.5603 13.9702C18.6791 12.9058 17.4069 13.9824 16.9967 14.8134C16.9269 14.9651 16.8738 15.1239 16.8382 15.2871C16.804 14.8758 16.7818 14.4537 16.7108 14.0455C16.5532 13.1207 16.2843 11.5661 15.0463 11.573C13.8082 11.58 13.1167 12.7167 12.9504 13.824C12.9121 14.5166 12.9924 15.2107 13.1878 15.8761C13.3183 16.3351 13.4526 16.808 13.5831 17.2669C13.6264 17.3982 13.6779 17.5267 13.7374 17.6514L13.4936 17.3225C13.0476 16.758 11.6118 14.7466 10.2578 13.8696C11.8014 11.791 11.7209 8.94241 11.5793 6.48709C11.5113 5.34882 11.3558 2.18335 9.60941 2.19986C9.39151 2.22138 9.1832 2.30042 9.00579 2.4289C8.82838 2.55737 8.68824 2.73066 8.59972 2.93105C8.30296 3.40397 8.1958 3.97153 8.29972 4.51995C8.15348 4.00535 8.00527 3.48381 7.85705 2.96226C7.62386 2.14169 6.74991 0.150613 5.51693 0.810126C3.94615 1.6561 4.47072 3.58134 4.88975 5.00295C4.74206 4.82704 4.58939 4.66006 4.43475 4.48612C3.89025 3.77997 3.12814 3.27319 2.26641 3.04427C1.93841 3.02085 1.60958 3.07746 1.30819 3.20923C1.0068 3.34101 0.741865 3.54401 0.536147 3.80079C0.330428 4.05756 0.190082 4.36043 0.127172 4.68337C0.0642626 5.00631 0.080669 5.33966 0.174983 5.65476C0.611823 7.19769 1.53867 8.55627 2.81558 9.52537C0.983939 9.45342 -0.941943 10.0548 0.826465 12.0992C2.07049 13.5413 5.35283 14.9364 7.83909 14.7466C7.48796 16.0969 7.64612 17.529 8.28338 18.7695C8.48444 19.2323 8.75358 19.6623 9.08186 20.0454L8.38119 19.8541C7.64181 19.6589 5.93186 19.1689 5.44214 20.0902C4.95243 21.0115 5.60805 22.2078 6.36288 22.7219C7.19392 23.2527 8.07603 23.6989 8.99601 24.0539C9.31253 24.1892 9.65884 24.3236 9.98927 24.4549C8.79417 24.2693 7.09198 23.9124 6.31546 24.75C4.4841 26.6625 8.0897 28.3488 10.5133 28.9436C9.17396 29.7312 9.79537 31.9972 11.5116 33.0116C13.2278 34.026 15.9012 33.4372 17.7256 33.7217C18.6046 33.8719 19.4281 34.2518 20.1128 34.823C21.299 35.7705 20.302 35.145 19.8306 34.9936C18.9295 34.6711 17.9799 34.5045 17.0226 34.5008C16.6159 34.4756 16.2147 34.6062 15.9006 34.866C15.5864 35.1258 15.3828 35.4955 15.331 35.8999C15.2864 36.5891 15.7638 37.4228 15.2351 37.0172C14.5353 36.5106 13.7488 36.136 12.9145 35.9119C12.4917 35.7993 11.5088 35.7787 11.5198 36.4521C11.5308 37.1255 12.0802 37.5778 11.534 37.0043C11.0359 36.3232 10.3648 35.7878 9.59014 35.4534C9.42289 35.3908 9.24195 35.3739 9.06597 35.4045C8.88999 35.4352 8.72532 35.5122 8.58893 35.6276C8.45254 35.743 8.34935 35.8928 8.29001 36.0613C8.23066 36.2299 8.21729 36.4112 8.25128 36.5866C8.3619 37.0807 8.61541 37.5314 8.98024 37.8823C9.13986 38.0473 9.26976 38.1606 9.36 38.2402C9.19327 38.1938 9.0166 38.1971 8.85167 38.2497C8.28157 38.4121 7.01478 39.1113 7.54876 39.959C8.5226 41.5081 10.5189 40.9694 11.9472 40.4948C12.5312 40.3284 13.0845 40.0805 13.6537 39.8883C13.3303 40.1205 13.0746 40.4347 12.9128 40.7985C12.5403 41.6563 13.3831 42.4535 13.9693 42.9029C15.2045 43.7815 16.5734 44.455 18.0232 44.8975C18.8568 45.1862 19.6765 45.4262 20.4923 45.6523L20.7325 45.7041C19.1931 46.1051 19.4526 48.0232 19.9217 49.0923C20.3909 50.1613 21.6617 50.8516 22.621 51.4503C23.2325 51.8059 23.8776 52.1005 24.5468 52.3298C24.6887 52.3796 24.8336 52.4135 24.9805 52.4543C21.5808 53.423 22.2831 56.7935 25.2197 58.3998C25.9527 58.7783 26.7555 59.0024 27.5787 59.0582L27.1048 59.2684C26.2018 59.7136 24.0129 60.9762 25.1409 62.3011C26.4186 63.8088 28.5419 64.0607 30.6671 63.6055C29.5939 65.0701 28.1344 66.2069 26.4522 66.8887C26.43 66.895 26.4113 66.9099 26.4001 66.93C26.3889 66.9501 26.3862 66.9738 26.3924 66.996C26.3987 67.0181 26.4136 67.0368 26.4336 67.048C26.4537 67.0592 26.4775 67.0619 26.4996 67.0556C29.1223 66.579 31.1153 64.7858 32.9546 62.8485C33.3587 62.6678 33.7528 62.4652 34.1349 62.2416C34.09 62.4273 34.045 62.613 33.9882 62.8096C33.4018 64.48 33.1235 66.2429 33.167 68.0124C33.1836 68.2557 33.5488 68.3245 33.6038 68.0683C33.9687 66.7772 34.4259 65.5139 34.972 64.2883C35.4606 66.4042 36.2563 68.2522 38.2633 69.3641L38.3001 69.3086C36.0294 67.1893 36.5682 63.7433 36.222 60.6472L36.2776 60.6313C39.6576 66.1254 45.5151 75.7095 52.6035 87.6415C49.1735 86.8939 45.8517 85.7163 42.7169 84.1366C39.3121 82.2834 35.733 80.7702 32.0314 79.6191C28.9968 78.6785 25.7153 78.9507 22.8756 80.3786C19.2929 82.3165 17.693 86.3656 16.3388 89.9838C16.2721 90.1456 16.5509 90.2541 16.6196 90.0992C18.1136 86.5765 20.7264 82.3892 24.9355 81.9942C27.9133 81.7095 31.0086 83.3984 33.627 84.5993C39.2825 87.2049 47.0724 91.3974 53.4752 89.1221C55.1304 91.9053 56.8421 94.8078 58.5973 97.8107C58.973 99.1154 59.6702 100.305 60.6249 101.27C61.4648 102.709 62.3123 104.166 63.1675 105.642C62.3822 105.317 61.5366 105.163 60.687 105.191C58.6626 105.287 58.2283 106.35 58.5136 107.539C58.5689 107.938 58.7181 108.318 58.9489 108.648C59.3189 109.331 59.8083 109.943 60.394 110.454C61.0667 110.982 61.7874 111.446 62.5465 111.84C62.8266 111.987 63.1148 112.118 63.4097 112.233L63.4772 112.259C61.8796 112.376 60.2347 112.273 58.6361 112.36C57.2093 112.443 51.6254 112.681 52.3326 115.382C52.9687 117.831 56.7785 118.227 58.8085 118.468C60.3051 118.679 61.8237 118.683 63.3218 118.482C62.8619 118.813 62.4213 119.169 62.0019 119.55C60.835 120.574 60.4922 121.483 60.7684 122.059C60.8538 122.269 61.0177 122.438 61.2255 122.53C61.9148 122.89 62.6919 123.049 63.4676 122.988C65.314 122.845 67.0446 122.031 68.3335 120.7L67.4495 122.455C66.8981 123.529 65.9567 125.136 66.3065 126.366C66.3065 126.366 66.36 126.396 66.3621 126.351C67.1102 124.779 67.9865 123.273 68.9823 121.846C69.2762 121.432 69.5482 121.003 69.7971 120.561C69.814 120.606 69.8273 120.653 69.8366 120.7C70.2015 122.527 71.0791 124.211 72.3667 125.557C72.4341 125.635 72.5405 125.507 72.5019 125.451C71.48 123.831 70.9228 121.962 70.8909 120.046C70.8992 119.758 70.9215 119.466 70.9556 119.163C71.8035 120.666 72.6585 122.176 73.5209 123.694C83.2923 141.154 91.6782 156.805 98.5745 170.574C95.9187 167.707 92.9974 165.044 90.5379 162.34C88.0784 159.635 86.1985 156.352 83.4955 153.822C80.9314 151.411 78.3403 149.09 75.5664 146.918C70.5094 142.954 64.7362 139.247 58.3083 138.102C52.1732 137.008 46.4713 139.37 41.994 143.502C41.7386 143.74 42.1082 144.221 42.3776 143.979C47.4325 139.975 53.1796 138.751 59.1626 141.452C64.4987 143.833 68.7528 148.303 72.7155 152.436C74.726 154.539 76.7247 156.654 78.771 158.724C81.1922 161.161 84.1546 162.753 87.1806 164.303C91.0116 166.358 94.5449 168.924 97.6831 171.933C98.9412 173.097 100.097 174.367 101.137 175.729C105.619 184.856 109.368 193.039 112.382 200.278C111.829 199.444 111.276 198.609 110.709 197.748C106.623 191.621 101.425 186.923 95.5153 182.578C89.965 178.492 83.8528 175.204 78.4448 170.904C73.0368 166.605 68.1024 161.591 63.1976 156.682C63.1101 156.599 62.9957 156.551 62.8754 156.546C62.7551 156.541 62.637 156.58 62.543 156.655C62.449 156.73 62.3854 156.837 62.364 156.956C62.3425 157.074 62.3647 157.196 62.4263 157.3C65.8631 162.554 69.5676 167.628 73.5252 172.502C77.951 177.735 83.3046 181.923 88.6789 186.157C94.0532 190.392 99.5713 194.735 105.179 198.813C109.656 202.085 113.448 205.695 116.279 210.211C118.001 214.783 119.396 219.472 120.455 224.243C120.508 224.497 120.66 224.719 120.876 224.861C121.092 225.004 121.356 225.055 121.61 225.004L121.68 224.984C121.917 224.917 122.121 224.762 122.249 224.551C122.378 224.341 122.421 224.089 122.372 223.847C119.646 210.529 110.314 188.585 94.587 158.42C93.813 156.421 92.87 154.491 91.7683 152.653ZM56.7046 112.73C55.7403 112.826 54.7934 113.053 53.89 113.404C54.786 113.03 55.7363 112.802 56.7046 112.73ZM72.8051 118.584C73.3039 118.99 73.8485 119.346 74.395 119.709C76.0031 120.671 77.5561 121.722 79.047 122.857L79.1026 122.841C78.8216 121.455 77.1699 120.43 76.1325 119.635C75.0951 118.841 74.2164 118.182 73.3467 117.422C75.318 117.033 77.151 117.586 78.9926 118.302C79.0939 118.34 79.1348 118.194 79.0594 118.14C77.9892 117.375 76.7835 116.821 75.5063 116.506C76.7691 116.125 77.9325 115.47 78.9143 114.588C79.88 118.462 80.6242 122.43 81.4778 126.253C82.6888 131.546 84.162 136.809 85.7871 141.999C82.4602 135.881 78.9156 129.481 75.1533 122.801C74.3749 121.384 73.5921 119.978 72.8051 118.584Z" fill="black" fill-opacity="0.05"/>
</svg>
