<svg width="30" height="31" viewBox="0 0 30 31" fill="none" xmlns="http://www.w3.org/2000/svg">
<path fill-rule="evenodd" clip-rule="evenodd" d="M5 0.472168C2.23858 0.472168 0 2.71074 0 5.47217V25.4722C0 28.2336 2.23858 30.4722 5 30.4722H25C27.7614 30.4722 30 28.2336 30 25.4722V5.47217C30 2.71074 27.7614 0.472168 25 0.472168H5ZM16.0312 22.9722V17.6284H17.8125L18.1875 15.4722H16.125V14.0659C16.125 13.5034 16.4062 12.9409 17.3438 12.9409H18.2812V11.0659C18.2812 11.0659 17.4375 10.8784 16.5938 10.8784C14.9062 10.8784 13.7812 11.9097 13.7812 13.7847V15.4722H11.9062V17.6284H13.7812V22.9722H12.5C9.73858 22.9722 7.5 20.7336 7.5 17.9722V12.9722C7.5 10.2107 9.73858 7.97217 12.5 7.97217H17.5C20.2614 7.97217 22.5 10.2107 22.5 12.9722V17.9722C22.5 20.7336 20.2614 22.9722 17.5 22.9722H16.0312Z" fill="#F4F4F4"/>
</svg>
