<svg width="114" height="114" viewBox="0 0 114 114" fill="none" xmlns="http://www.w3.org/2000/svg">
<g id="Group 427319302">
<g id="Group">
<path id="Vector" d="M112.172 39.6347C111.625 39.4599 111.347 39.0343 111.051 38.6885C109.121 36.4237 106.928 34.4211 104.88 32.2779C104.04 31.4001 103.2 30.5147 102.357 29.6407C102.072 29.3481 101.817 29.2797 101.464 29.6369C96.8695 34.2615 92.2639 38.8747 87.6583 43.4841C83.1971 47.9491 78.7359 52.4141 74.2709 56.8791C67.5639 63.5899 60.8531 70.2969 54.1575 77.0191C53.7395 77.4371 53.6027 77.5093 53.1467 76.9887C51.9497 75.6321 50.6235 74.3819 49.3467 73.0975C44.1445 67.8687 38.9499 62.6361 33.7249 57.4263C33.0979 56.7993 32.4671 56.1799 31.8857 55.5111C31.6919 55.2869 31.4981 55.1691 31.2473 55.4389C28.8419 58.0191 26.3035 60.4663 23.8221 62.9705C18.3653 68.4805 12.8933 73.9715 7.42509 79.4739C6.96529 79.9375 6.89309 79.9033 6.40289 79.4169C4.96269 77.9843 3.60609 76.4681 2.06329 75.1419C1.69089 74.8227 1.63389 74.5681 2.02909 74.1729C8.97169 67.2265 15.8991 60.2649 22.8303 53.3033C25.4599 50.6623 28.0895 48.0213 30.7229 45.3765C30.7951 45.3043 30.8635 45.2359 30.9357 45.1637C31.6425 44.4379 31.6539 44.4227 32.3987 45.1713C39.3831 52.1975 46.3637 59.2237 53.3367 66.2613C53.6825 66.6109 53.8991 66.7439 54.2487 66.2727C54.5413 65.8813 54.9327 65.5621 55.2823 65.2125C61.0317 59.4631 66.7887 53.7213 72.5305 47.9681C74.3887 46.1061 76.2127 44.2137 78.0633 42.3403C81.8861 38.4719 85.7165 34.6111 89.5431 30.7427C91.3861 28.8807 93.2253 27.0187 95.0645 25.1567C95.4141 24.8033 95.7637 24.4499 96.1893 24.1915C96.4705 24.0205 96.4705 23.8343 96.2539 23.6139C95.9879 23.3441 95.7181 23.0781 95.4483 22.8121C92.8795 20.2775 90.3867 17.6707 87.7571 15.1969C87.2403 14.7143 86.7463 14.2089 86.2523 13.6997C86.1421 13.5857 85.9027 13.4907 86.0053 13.2855C86.1003 13.0955 86.3245 13.1753 86.4993 13.1753C88.2093 13.1715 89.9231 13.1715 91.6331 13.1715C98.1387 13.1677 104.644 13.1639 111.15 13.1639C111.23 13.1639 111.309 13.1677 111.389 13.1677C112.313 13.1791 112.316 13.1791 112.316 14.0873C112.316 22.2345 112.32 30.3855 112.313 38.5327C112.305 38.8861 112.221 39.2357 112.172 39.6347Z" fill="#1C1B1F"/>
<path id="Vector_2" d="M97.1089 74.7429C97.1089 63.8977 97.1089 53.0525 97.1051 42.2073C97.1051 41.5081 97.1393 40.8014 97.0405 40.1136C96.9151 39.2548 97.3559 38.7266 97.9183 38.2364C99.0013 37.294 100.012 36.2831 101.004 35.2457C101.604 34.6187 101.916 34.5807 102.513 35.1773C105.1 37.7613 107.7 40.3415 110.257 42.9597C110.759 43.4727 111.298 43.5563 111.914 43.4955C112.339 43.4537 112.434 43.6019 112.434 44.0161C112.423 65.4861 112.434 113.359 112.434 113.359H97.0215C97.0215 113.359 97.1051 86.1087 97.1051 74.7429C97.1051 74.7429 97.1051 74.7429 97.1089 74.7429Z" fill="#1C1B1F"/>
<path id="Vector_3" d="M93.0088 43.279C93.1874 43.716 93.1988 44.1758 93.1988 44.6432C93.195 65.6344 93.2026 113.355 93.2026 113.355C93.2026 113.355 87.6052 113.275 86.3132 113.321C85.063 113.362 83.8051 113.362 82.5549 113.332C81.3959 113.305 77.9113 113.355 77.9113 113.355C77.9113 113.355 78.0026 106.021 78.0026 104.144C78.0026 89.9012 78.0064 75.6626 78.0026 61.4202C78.0026 60.4854 77.9531 59.5468 77.9113 58.612C77.8999 58.3118 77.9912 58.0952 78.204 57.8824C81.7532 54.3332 85.291 50.7688 88.844 47.2234C90.1322 45.9352 91.4546 44.6812 92.7656 43.412C92.8302 43.3474 92.8758 43.2372 93.0088 43.279Z" fill="#1C1B1F"/>
<path id="Vector_4" d="M38.7942 34.995C38.8018 33.5054 38.8056 32.0158 38.6992 30.53C38.6726 30.169 39.0298 30.3058 39.2502 30.397C40.223 30.8074 41.1958 31.214 42.161 31.6358C44.6424 32.715 47.2416 33.4294 49.894 33.8816C51.0074 34.0716 52.1664 34.0792 53.3178 34.0222C54.1272 33.9804 54.9062 33.95 55.6928 33.6992C57.0494 33.2698 57.589 32.107 57.2356 30.7694C57.133 30.3856 56.829 30.1348 56.4908 29.9448C54.606 28.8846 52.6756 27.946 50.654 27.1442C48.507 26.293 46.3258 25.495 44.346 24.2448C42.3624 22.9908 40.6828 21.4708 39.729 19.282C39.3414 18.3966 39.1096 17.4618 38.9766 16.489C38.8588 15.634 38.8626 14.7904 38.8892 13.943C38.9728 11.4122 39.8962 9.23858 41.7392 7.48298C43.4454 5.86038 45.562 5.10038 47.785 4.53798C48.6628 4.31758 49.5596 4.22258 50.445 4.07058C50.7528 4.01738 50.958 3.89958 50.9314 3.53478C50.8554 2.48978 51.0606 1.43338 50.8212 0.388376C50.768 0.156576 50.8744 0.00837567 51.1404 0.00837567C52.8694 0.00837567 54.6022 -0.0030245 56.3312 0.000775501C56.677 0.000775501 56.6618 0.270576 56.658 0.517576C56.6504 1.47518 56.6428 2.43278 56.6428 3.39418C56.6428 3.99838 56.8138 4.08577 57.3914 4.01358C58.026 3.93377 58.6606 4.13898 59.28 4.24158C60.9406 4.51138 62.5974 4.83437 64.2048 5.37778C65.3334 5.75777 66.4772 6.09218 67.5792 6.55958C67.9098 6.70018 67.9288 6.87118 67.8072 7.15998C66.88 9.38298 65.949 11.6022 65.0408 13.8328C64.9382 14.0874 64.619 14.2318 64.7026 14.5966C64.733 14.7334 64.5278 14.7258 64.3834 14.6536C63.213 14.0684 61.9666 13.6618 60.724 13.2742C59.641 12.9322 58.5466 12.6092 57.38 12.5598C56.4908 12.5218 55.613 12.2786 54.7238 12.1722C53.599 12.0354 52.4856 12.157 51.3988 12.4762C50.5552 12.7232 49.9738 13.3008 49.875 14.1596C49.78 14.9918 50.2056 15.6378 50.9124 16.1394C52.4552 17.2338 54.2032 17.8532 55.955 18.4688C58.1476 19.2402 60.2566 20.213 62.3238 21.2542C64.5772 22.3866 66.4924 23.9712 67.5678 26.3652C68.0352 27.4064 68.2176 28.5046 68.381 29.6332C68.6204 31.2786 68.4076 32.8708 67.8946 34.387C67.1156 36.6936 65.7514 38.6316 63.5968 39.8856C62.3656 40.6038 61.0736 41.1624 59.6676 41.5158C58.843 41.7248 58.0222 41.93 57.1824 42.0744C56.8252 42.1352 56.62 42.2758 56.6314 42.7318C56.6732 44.1872 56.6428 45.6464 56.6618 47.1056C56.6656 47.5198 56.5858 47.7212 56.107 47.7136C54.5376 47.687 52.9682 47.6946 51.395 47.7174C51.0036 47.7212 50.901 47.6072 50.9086 47.2158C50.9352 45.8174 50.9086 44.419 50.9352 43.0206C50.9466 42.4924 50.7186 42.3214 50.236 42.2986C47.0288 42.139 43.9204 41.4778 40.907 40.3606C40.3636 40.1592 39.8164 39.9578 39.2654 39.7754C38.8892 39.65 38.7562 39.4258 38.7638 39.0154C38.8094 37.6702 38.7942 36.3326 38.7942 34.995Z" fill="#1C1B1F"/>
<path id="Vector_5" d="M35.8947 86.8954C35.8947 93.9444 35.9061 100.997 35.8833 108.046C35.8795 108.996 35.9061 113.4 35.9061 113.4L20.6301 113.374C20.6301 113.374 20.6947 106.184 20.6909 104.387C20.6871 94.4004 20.6947 84.414 20.6909 74.4276C20.6909 73.5688 20.6681 72.71 20.6301 71.8512C20.6111 71.4218 20.7289 71.1102 21.0443 70.7948C22.8151 69.043 24.5593 67.2608 26.3149 65.4938C27.3029 64.4982 28.2985 63.514 29.2789 62.5146C29.8071 61.975 30.3049 61.4088 30.8331 60.8692C31.3081 60.3866 31.4677 60.4094 31.9275 60.8806C33.0979 62.0776 34.2721 63.2708 35.4577 64.4526C35.7579 64.7528 35.9023 65.0568 35.9023 65.5014C35.8909 72.634 35.8947 79.7628 35.8947 86.8954Z" fill="#1C1B1F"/>
<path id="Vector_6" d="M74.0999 62.2144C74.0999 72.1324 74.0999 81.9402 74.0999 91.7442C74.0999 97.2162 74.1227 102.688 74.0809 108.16C74.0733 109.239 74.1037 113.359 74.1037 113.359C74.1037 113.359 71.5501 113.332 70.0415 113.343C68.0731 113.359 66.1047 113.347 64.1325 113.332C63.4181 113.328 58.7859 113.359 58.7859 113.359C58.7859 113.359 58.8961 106.093 58.8961 104.216C58.8923 96.0876 58.8923 87.9594 58.8923 79.8312C58.8923 79.7894 58.8999 79.7514 58.8923 79.7134C58.5009 77.954 59.2989 76.776 60.5415 75.579C64.5391 71.7144 68.4151 67.7244 72.3481 63.7914C72.8687 63.2594 73.3855 62.716 74.0999 62.2144Z" fill="#1C1B1F"/>
<path id="Vector_7" d="M39.8165 109.593C39.8393 107.795 39.7975 105.998 39.7937 104.201C39.7899 94.3965 39.7937 84.5887 39.7861 74.7847C39.7861 73.5269 39.7709 72.2691 39.7291 71.0113C39.7139 70.5211 39.5847 70.0347 39.6037 69.5369C39.6113 69.3317 39.6531 69.1265 39.8393 69.0467C40.0065 68.9745 40.1129 69.1645 40.2231 69.2747C44.3005 73.3711 48.3817 77.4637 52.4591 81.5601C52.6149 81.7159 52.7745 81.8679 52.9113 82.0351C53.3749 82.6013 53.5915 82.6051 54.1387 82.0845C54.3591 81.8755 54.5681 81.4689 54.8645 81.5905C55.1381 81.7045 54.9823 82.1339 54.9823 82.4227C54.9937 90.9917 55.0051 99.5569 54.9823 108.122C54.9785 108.989 55.0279 113.343 55.0279 113.343C55.0279 113.343 52.7783 113.298 50.9467 113.332C48.9783 113.37 39.8431 113.397 39.8431 113.397C39.8431 113.397 39.7937 111.375 39.8165 109.593Z" fill="#1C1B1F"/>
<path id="Vector_8" d="M16.7922 113.271H1.52002C1.52002 113.271 1.59222 106.389 1.58842 104.691C1.56562 96.7677 1.63782 88.8447 1.53522 80.9217C1.53142 80.7279 1.47062 80.5151 1.64542 80.3555C1.71762 80.3745 1.80122 80.4429 1.83542 80.3099C2.09382 80.3517 2.22302 80.5683 2.38262 80.7317C3.73162 82.0883 5.08442 83.4411 6.41062 84.8167C6.72602 85.1511 6.90842 85.1207 7.21242 84.8129C10.279 81.7045 13.3532 78.6113 16.4274 75.5105C16.511 75.4269 16.5832 75.3319 16.7884 75.3737V79.1129C16.7884 88.7155 16.7998 98.3219 16.777 107.928C16.777 108.954 16.7922 113.271 16.7922 113.271Z" fill="#1C1B1F"/>
</g>
</g>
</svg>
