<svg width="30" height="31" viewBox="0 0 30 31" fill="none" xmlns="http://www.w3.org/2000/svg">
<path d="M15 18.0972C13.5938 18.0972 12.375 16.9722 12.375 15.4722C12.375 14.0659 13.5 12.8472 15 12.8472C16.4062 12.8472 17.625 13.9722 17.625 15.4722C17.625 16.8784 16.4062 18.0972 15 18.0972Z" fill="#FFFBFE"/>
<path fill-rule="evenodd" clip-rule="evenodd" d="M18.1875 9.09717H11.8125C11.0625 9.19092 10.6875 9.28467 10.4062 9.37842C10.0313 9.47217 9.75 9.65967 9.46875 9.94092C9.2462 10.1635 9.14105 10.386 9.01396 10.655C8.98046 10.7259 8.94535 10.8002 8.90625 10.8784C8.89175 10.9219 8.875 10.9677 8.85705 11.0167C8.75897 11.2847 8.625 11.6507 8.625 12.2847V18.6597C8.71875 19.4097 8.8125 19.7847 8.90625 20.0659C9 20.4409 9.1875 20.7222 9.46875 21.0034C9.6913 21.226 9.91385 21.3311 10.1829 21.4582C10.2538 21.4917 10.328 21.5268 10.4062 21.5659C10.4498 21.5804 10.4955 21.5972 10.5445 21.6151C10.8125 21.7132 11.1785 21.8472 11.8125 21.8472H18.1875C18.9375 21.7534 19.3125 21.6597 19.5938 21.5659C19.9688 21.4722 20.25 21.2847 20.5312 21.0034C20.7538 20.7809 20.8589 20.5583 20.986 20.2893C21.0196 20.2184 21.0546 20.1442 21.0938 20.0659C21.1083 20.0224 21.125 19.9767 21.1429 19.9276C21.241 19.6597 21.375 19.2936 21.375 18.6597V12.2847C21.2812 11.5347 21.1875 11.1597 21.0938 10.8784C21 10.5034 20.8125 10.2222 20.5312 9.94092C20.3087 9.71837 20.0861 9.61322 19.8172 9.48612C19.7463 9.45265 19.6719 9.41748 19.5938 9.37842C19.5502 9.36391 19.5045 9.34717 19.4555 9.32922C19.1875 9.23114 18.8215 9.09717 18.1875 9.09717ZM15 11.4409C12.75 11.4409 10.9688 13.2222 10.9688 15.4722C10.9688 17.7222 12.75 19.5034 15 19.5034C17.25 19.5034 19.0312 17.7222 19.0312 15.4722C19.0312 13.2222 17.25 11.4409 15 11.4409ZM20.0625 11.3472C20.0625 11.8649 19.6428 12.2847 19.125 12.2847C18.6072 12.2847 18.1875 11.8649 18.1875 11.3472C18.1875 10.8294 18.6072 10.4097 19.125 10.4097C19.6428 10.4097 20.0625 10.8294 20.0625 11.3472Z" fill="#FFFBFE"/>
<path fill-rule="evenodd" clip-rule="evenodd" d="M0 5.15967C0 2.57083 2.09867 0.472168 4.6875 0.472168H25.3125C27.9013 0.472168 30 2.57083 30 5.15967V25.7847C30 28.3735 27.9013 30.4722 25.3125 30.4722H4.6875C2.09867 30.4722 0 28.3735 0 25.7847V5.15967ZM11.8125 7.69092H18.1875C19.0312 7.78467 19.5938 7.87842 20.0625 8.06592C20.625 8.34717 21 8.53467 21.4688 9.00342C21.9375 9.47217 22.2188 9.94092 22.4063 10.4097C22.5938 10.8784 22.7812 11.4409 22.7812 12.2847V18.6597C22.6875 19.5034 22.5938 20.0659 22.4063 20.5347C22.125 21.0972 21.9375 21.4722 21.4688 21.9409C21 22.4097 20.5312 22.6909 20.0625 22.8784C19.5938 23.0659 19.0312 23.2534 18.1875 23.2534H11.8125C10.9688 23.1597 10.4062 23.0659 9.9375 22.8784C9.375 22.5972 9 22.4097 8.53125 21.9409C8.0625 21.4722 7.78125 21.0034 7.59375 20.5347C7.40625 20.0659 7.21875 19.5034 7.21875 18.6597V12.2847C7.3125 11.4409 7.40625 10.8784 7.59375 10.4097C7.875 9.84717 8.0625 9.47217 8.53125 9.00342C9 8.53467 9.46875 8.25342 9.9375 8.06592C10.4062 7.87842 10.9688 7.69092 11.8125 7.69092Z" fill="#FFFBFE"/>
</svg>
