<svg width="113" height="113" viewBox="0 0 113 113" fill="none" xmlns="http://www.w3.org/2000/svg">
<path d="M32.4564 106.584H40.8825C41.626 106.584 42.1216 106.003 42.1216 105.13C42.1216 104.258 41.626 103.676 40.8825 103.676H32.4564C31.7129 103.676 31.2173 104.258 31.2173 105.13C31.2173 106.003 31.7129 106.584 32.4564 106.584Z" fill="#1C1B20"/>
<path d="M111.761 0H22.2957C21.5522 0 21.0565 0.581633 21.0565 1.45408V7.99745C21.0565 8.8699 21.5522 9.45153 22.2957 9.45153H24.1543V30.2449H21.9239C14.1174 30.2449 7.67391 37.8061 7.67391 46.9668V53.5102C5.93913 54.5281 4.57609 56.7092 4.57609 59.1811C4.57609 62.6709 6.93043 65.4337 9.90435 65.4337H10.1522C10.6478 72.1225 14.2413 77.7934 19.1978 80.4107V82.5918C18.8261 82.0102 18.0826 81.8648 17.587 82.301L13.4978 85.6454C13.25 85.9362 13.0022 86.2271 13.0022 86.6633C13.0022 87.0995 13.0022 87.5357 13.25 87.8265L13.7457 88.5536L2.22174 93.9337C0.23913 94.9515 -1 97.1327 -1 99.6046V112.546C-1 113.418 -0.504348 114 0.23913 114H50.6717C51.4152 114 51.9109 113.418 51.9109 112.546V99.6046C51.9109 97.1327 50.6717 94.9515 48.6891 94.0791L37.1652 88.699L37.6609 87.972C37.9087 87.6811 38.0326 87.2449 37.9087 86.8087C37.9087 86.3725 37.6609 86.0816 37.413 85.7908L33.3239 82.4464C32.8283 82.0102 32.0848 82.1556 31.713 82.7372V80.5561C33.8196 79.5383 35.5543 77.9388 37.0413 75.9031H65.913V80.1199C63.3109 80.8469 61.3283 83.4643 61.3283 86.8087C61.3283 90.5893 63.9304 93.6429 67.1522 93.6429C70.3739 93.6429 72.9761 90.5893 72.9761 86.8087C72.9761 83.6097 70.9935 80.8469 68.3913 80.1199V75.9031H108.787C109.53 75.9031 110.026 75.3214 110.026 74.449V9.59694H111.761C112.504 9.59694 113 9.01531 113 8.14286V1.59949C113 0.72704 112.504 0 111.761 0ZM70.3739 86.6633C70.3739 88.8444 68.887 90.5893 67.0283 90.5893C65.1696 90.5893 63.6826 88.8444 63.6826 86.6633C63.6826 84.6276 65.0457 82.8827 66.7804 82.7372C66.9043 82.7372 66.9043 82.7372 67.0283 82.7372C67.1522 82.7372 67.1522 82.7372 67.2761 82.7372C69.0109 83.0281 70.3739 84.6276 70.3739 86.6633ZM40.6348 55.9821H40.7587C42.3696 55.9821 43.6087 57.4362 43.6087 59.3265C43.6087 61.2168 42.3696 62.6709 40.7587 62.6709H40.6348V55.9821ZM10.1522 62.6709H10.0283C8.41739 62.6709 7.17826 61.2168 7.17826 59.3265C7.17826 57.4362 8.41739 55.9821 10.0283 55.9821H10.1522V62.6709ZM1.47826 99.6046C1.47826 98.2959 2.09783 97.2781 3.08913 96.6964L15.4804 90.8801L20.313 97.5689C20.5609 97.8597 20.9326 98.1505 21.3043 98.1505C21.5522 98.1505 21.8 98.0051 22.0478 97.8597L24.2783 96.1148V111.092H1.47826V99.6046ZM47.6978 96.6964C48.6891 97.1327 49.3087 98.2959 49.3087 99.6046V111.092H26.6326V96.1148L28.863 97.8597C29.1109 98.0051 29.3587 98.1505 29.6065 98.1505C29.9783 98.1505 30.35 98.0051 30.5978 97.5689L35.4304 90.8801L47.6978 96.6964ZM29.1109 86.0816L25.5174 91.0255L21.8 86.0816V81.4286C22.9152 81.7194 24.1543 82.0102 25.3935 82.0102C26.6326 82.0102 27.8717 81.8648 28.987 81.4286V86.0816H29.1109ZM25.3935 79.102C18.3304 79.102 12.6304 72.4133 12.6304 64.125V55.8367H22.9152C23.4109 55.8367 23.7826 55.5459 24.0304 54.9643L25.3935 51.7653L26.7565 54.9643C27.0043 55.4005 27.3761 55.8367 27.8717 55.8367H38.1565V64.125C38.1565 72.4133 32.4565 79.102 25.3935 79.102ZM107.548 72.9949H38.6522C39.7674 70.8138 40.387 68.3418 40.6348 65.5791H40.8826C43.8565 65.5791 46.2109 62.8163 46.2109 59.3265C46.2109 56.8546 44.9717 54.6735 43.113 53.6556V47.1123C43.113 37.9515 36.6696 30.3903 28.863 30.3903H26.6326V9.59694H107.548V72.9949Z" fill="#1C1B20"/>
<path d="M72.8522 44.3495C74.7109 47.6939 76.1978 51.7653 77.313 56.7092L77.6848 58.3087C77.8087 58.8903 78.3044 59.3266 78.8 59.3266V64.4158C78.8 66.597 80.287 68.3419 82.1457 68.3419H82.7652V68.7781C82.7652 69.6505 83.2609 70.2322 84.0044 70.2322C84.7478 70.2322 85.2435 69.6505 85.2435 68.7781V68.3419H85.7391C87.5978 68.3419 89.0848 66.597 89.0848 64.4158V59.3266C89.5804 59.3266 90.0761 58.8903 90.2 58.3087L90.8196 55.4005C91.687 51.7653 93.05 48.2755 95.2804 43.7679C96.5196 41.4414 97.1391 38.6786 97.1391 35.9158C97.1391 31.699 95.7761 27.773 93.1739 24.8648C90.5717 21.9567 87.2261 20.3572 83.6326 20.5026C80.1631 20.648 76.9413 22.3929 74.463 25.4465C71.9848 28.5 70.7457 32.426 70.8696 36.4975C70.7457 39.2602 71.4891 42.023 72.8522 44.3495ZM80.4109 39.6965H79.6674C79.4196 39.6965 79.1717 39.4056 79.1717 39.1148V38.824C79.1717 38.5332 79.4196 38.2424 79.6674 38.2424H79.9152C80.1631 38.2424 80.4109 38.5332 80.4109 38.824V39.6965ZM82.8891 42.6046H84.9957V56.5638H82.8891V42.6046ZM76.1978 27.3368C78.1804 24.8648 80.7826 23.4107 83.6326 23.4107C86.6065 23.2653 89.3326 24.574 91.4391 26.9005C93.5457 29.2271 94.6609 32.426 94.6609 35.9158C94.6609 38.097 94.1652 40.4235 93.1739 42.3138C90.8196 46.9669 89.3326 50.8929 88.4652 54.6735L88.0935 56.5638H87.8457H87.4739V42.6046H88.2174C89.8283 42.6046 91.1913 41.0051 91.1913 39.1148V38.824C91.1913 36.9337 89.8283 35.3342 88.2174 35.3342H87.9696C86.3587 35.3342 84.9957 36.9337 84.9957 38.824V39.6965H82.8891V38.824C82.8891 36.9337 81.5261 35.3342 79.9152 35.3342H79.6674C78.0565 35.3342 76.6935 36.9337 76.6935 38.824V39.1148C76.6935 41.0051 78.0565 42.6046 79.6674 42.6046H80.4109V56.5638H80.0391H79.7913L79.6674 55.9822C78.4283 50.7475 76.8174 46.3852 74.8348 42.75C73.7196 40.8597 73.2239 38.5332 73.1 36.3521C73.1 33.0077 74.2152 29.9541 76.1978 27.3368ZM87.4739 39.6965V38.824C87.4739 38.5332 87.7217 38.2424 87.9696 38.2424H88.2174C88.4652 38.2424 88.713 38.5332 88.713 38.824V39.1148C88.713 39.4056 88.4652 39.6965 88.2174 39.6965H87.4739Z" fill="#1C1B20"/>
<path d="M83.8805 19.1939C84.624 19.1939 85.1196 18.6122 85.1196 17.7398V13.8138C85.1196 12.9413 84.624 12.3597 83.8805 12.3597C83.137 12.3597 82.6414 12.9413 82.6414 13.8138V17.7398C82.6414 18.6122 83.2609 19.1939 83.8805 19.1939Z" fill="#1C1B20"/>
<path d="M99.7413 37.6607H103.087C103.83 37.6607 104.326 37.0791 104.326 36.2067C104.326 35.3342 103.83 34.7526 103.087 34.7526H99.7413C98.9978 34.7526 98.5022 35.3342 98.5022 36.2067C98.5022 37.0791 98.9978 37.6607 99.7413 37.6607Z" fill="#1C1B20"/>
<path d="M64.798 37.6607H68.1436C68.8871 37.6607 69.3828 37.0791 69.3828 36.2067C69.3828 35.3342 68.8871 34.7526 68.1436 34.7526H64.798C64.0545 34.7526 63.5588 35.3342 63.5588 36.2067C63.5588 37.0791 64.1784 37.6607 64.798 37.6607Z" fill="#1C1B20"/>
<path d="M95.0326 24.574C95.4043 24.574 95.6521 24.4286 95.9 24.1378L98.2543 21.375C98.75 20.7934 98.75 19.9209 98.2543 19.3393C97.7587 18.7577 97.0152 18.7577 96.5195 19.3393L94.1652 22.102C93.6695 22.6837 93.6695 23.5561 94.1652 24.1378C94.413 24.4286 94.7848 24.574 95.0326 24.574Z" fill="#1C1B20"/>
<path d="M71.8611 48.4209L69.5067 51.1837C69.0111 51.7653 69.0111 52.6378 69.5067 53.2194C69.7546 53.5102 70.1263 53.6556 70.3741 53.6556C70.622 53.6556 70.9937 53.5102 71.2415 53.2194L73.5959 50.4566C74.0915 49.875 74.0915 49.0026 73.5959 48.4209C73.1002 47.8393 72.3567 47.8393 71.8611 48.4209Z" fill="#1C1B20"/>
<path d="M95.9 48.4209C95.4043 47.8393 94.6608 47.8393 94.1652 48.4209C93.6695 49.0026 93.6695 49.875 94.1652 50.4566L96.5195 53.2194C96.7674 53.5102 97.1391 53.6556 97.3869 53.6556C97.6348 53.6556 98.0065 53.5102 98.2543 53.2194C98.75 52.6378 98.75 51.7653 98.2543 51.1837L95.9 48.4209Z" fill="#1C1B20"/>
<path d="M71.8611 24.1378C72.1089 24.4286 72.4807 24.574 72.7285 24.574C72.9763 24.574 73.348 24.4286 73.5959 24.1378C74.0915 23.5561 74.0915 22.6837 73.5959 22.102L71.2415 19.3393C70.7459 18.7577 70.0024 18.7577 69.5067 19.3393C69.0111 19.9209 69.0111 20.7934 69.5067 21.375L71.8611 24.1378Z" fill="#1C1B20"/>
<path d="M33.6957 26.3189H40.8826C41.6261 26.3189 42.1218 25.7372 42.1218 24.8648V16.4311C42.1218 15.5587 41.6261 14.977 40.8826 14.977H33.6957C32.9522 14.977 32.4565 15.5587 32.4565 16.4311V24.8648C32.4565 25.5918 32.9522 26.3189 33.6957 26.3189Z" fill="#1C1B20"/>
<path d="M47.202 26.3189H58.1064C58.8498 26.3189 59.3455 25.7372 59.3455 24.8648C59.3455 23.9923 58.8498 23.4107 58.1064 23.4107H47.202C46.4585 23.4107 45.9629 23.9923 45.9629 24.8648C45.9629 25.7372 46.5825 26.3189 47.202 26.3189Z" fill="#1C1B20"/>
<path d="M47.202 39.6964H58.1064C58.8498 39.6964 59.3455 39.1148 59.3455 38.2424C59.3455 37.3699 58.8498 36.7883 58.1064 36.7883H47.202C46.4585 36.7883 45.9629 37.3699 45.9629 38.2424C45.9629 39.1148 46.5825 39.6964 47.202 39.6964Z" fill="#1C1B20"/>
<path d="M47.202 53.2194H58.1064C58.8498 53.2194 59.3455 52.6378 59.3455 51.7653C59.3455 50.8929 58.8498 50.3112 58.1064 50.3112H47.202C46.4585 50.3112 45.9629 50.8929 45.9629 51.7653C45.9629 52.6378 46.5825 53.2194 47.202 53.2194Z" fill="#1C1B20"/>
<path d="M54.2653 19.7755H60.2131C60.9566 19.7755 61.4522 19.1939 61.4522 18.3214C61.4522 17.449 60.9566 16.8674 60.2131 16.8674H54.2653C53.5218 16.8674 53.0261 17.449 53.0261 18.3214C53.0261 19.1939 53.6457 19.7755 54.2653 19.7755Z" fill="#1C1B20"/>
<path d="M47.202 19.7755H50.4238C51.1672 19.7755 51.6629 19.1939 51.6629 18.3214C51.6629 17.449 51.1672 16.8674 50.4238 16.8674H47.202C46.4585 16.8674 45.9629 17.449 45.9629 18.3214C45.9629 19.1939 46.5825 19.7755 47.202 19.7755Z" fill="#1C1B20"/>
<path d="M60.337 30.3903H56.4957C55.7522 30.3903 55.2566 30.972 55.2566 31.8444C55.2566 32.7169 55.7522 33.2985 56.4957 33.2985H60.337C61.0805 33.2985 61.5762 32.7169 61.5762 31.8444C61.5762 30.972 60.9566 30.3903 60.337 30.3903Z" fill="#1C1B20"/>
<path d="M47.202 33.2985H52.6542C53.3977 33.2985 53.8933 32.7169 53.8933 31.8444C53.8933 30.972 53.3977 30.3903 52.6542 30.3903H47.202C46.4585 30.3903 45.9629 30.972 45.9629 31.8444C45.9629 32.7169 46.5825 33.2985 47.202 33.2985Z" fill="#1C1B20"/>
<path d="M60.3369 43.7679H54.389C53.6456 43.7679 53.1499 44.3495 53.1499 45.2219C53.1499 46.0944 53.6456 46.676 54.389 46.676H60.3369C61.0803 46.676 61.576 46.0944 61.576 45.2219C61.576 44.3495 60.9564 43.7679 60.3369 43.7679Z" fill="#1C1B20"/>
<path d="M47.202 46.676H50.4238C51.1672 46.676 51.6629 46.0944 51.6629 45.2219C51.6629 44.3495 51.1672 43.7679 50.4238 43.7679H47.202C46.4585 43.7679 45.9629 44.3495 45.9629 45.2219C45.9629 46.0944 46.5825 46.676 47.202 46.676Z" fill="#1C1B20"/>
</svg>
