<svg width="30" height="31" viewBox="0 0 30 31" fill="none" xmlns="http://www.w3.org/2000/svg">
<path fill-rule="evenodd" clip-rule="evenodd" d="M0 5.15967C0 2.57083 2.09867 0.472168 4.6875 0.472168H25.3125C27.9013 0.472168 30 2.57083 30 5.15967V25.7847C30 28.3735 27.9013 30.4722 25.3125 30.4722H4.6875C2.09867 30.4722 0 28.3735 0 25.7847V5.15967ZM7.6875 12.9409V22.9722H10.875V12.9409H7.6875ZM7.5 9.75342C7.5 10.7847 8.25 11.5347 9.28125 11.5347C10.3125 11.5347 11.0625 10.7847 11.0625 9.75342C11.0625 8.72217 10.3125 7.97217 9.28125 7.97217C8.34375 7.97217 7.5 8.72217 7.5 9.75342ZM19.3125 22.9722H22.3125V16.7847C22.3125 13.6909 20.4375 12.6597 18.6562 12.6597C17.0625 12.6597 15.9375 13.6909 15.6562 14.3472V12.9409H12.6562V22.9722H15.8437V17.6284C15.8437 16.2222 16.7812 15.4722 17.7187 15.4722C18.6562 15.4722 19.3125 15.9409 19.3125 17.5347V22.9722Z" fill="#FFFBFE"/>
</svg>
