<svg width="24" height="24" viewBox="0 0 24 24" fill="none" xmlns="http://www.w3.org/2000/svg">
<g id="Group 427319069">
<g id="Group">
<path id="Vector" d="M15.0088 1.00772C15.1401 1.04247 15.2752 1.07335 15.4065 1.11582C16.3717 1.4131 17.0241 2.28949 17.0396 3.33576C17.0512 4.29709 17.0473 5.26228 17.0396 6.22746C17.0357 6.68303 16.7076 7.02278 16.2829 7.02664C15.8505 7.0305 15.5146 6.68303 15.5146 6.21588C15.5107 5.28544 15.5146 4.35886 15.5146 3.42842C15.5146 2.83772 15.2057 2.53272 14.6189 2.53272C11.7079 2.53272 8.79686 2.53272 5.88585 2.53272C5.82794 2.53272 5.76617 2.54044 5.65807 2.5443C5.75459 2.60607 5.8125 2.64082 5.86655 2.67171C7.27572 3.48633 8.68104 4.30481 10.0941 5.11171C10.9589 5.60588 11.372 6.32784 11.3681 7.32392C11.3565 10.5747 11.3643 13.8254 11.3643 17.0762C11.3643 17.165 11.3643 17.2538 11.3643 17.3696C11.4492 17.3735 11.5226 17.3812 11.5959 17.3812C12.5997 17.3812 13.6074 17.3812 14.6112 17.3812C15.2057 17.3812 15.5146 17.0646 15.5184 16.4662C15.5184 15.6477 15.5146 14.8292 15.5223 14.0146C15.5262 13.6324 15.7848 13.3274 16.1439 13.2656C16.5068 13.2038 16.8543 13.3853 16.9817 13.7251C17.0241 13.8332 17.0434 13.9528 17.0434 14.0687C17.0473 14.8949 17.055 15.7172 17.0434 16.5434C17.028 17.8638 16.0898 18.8521 14.7695 18.8946C13.7232 18.9255 12.6769 18.9023 11.6307 18.9062C11.5496 18.9062 11.4685 18.9062 11.3643 18.9062C11.3643 19.2575 11.3565 19.5818 11.3643 19.9061C11.399 21.4427 10.0979 22.3461 8.95901 22.2959C8.5768 22.2805 8.22161 22.1724 7.89344 21.9832C6.31439 21.0721 4.73535 20.1687 3.16402 19.2498C2.39959 18.8058 2.00965 18.1225 2.00579 17.2422C1.99807 12.6132 1.99807 7.98411 2.00579 3.3512C2.00579 2.16595 2.79339 1.25867 3.96319 1.03475C3.99022 1.03089 4.01338 1.01158 4.03655 1C7.68882 1.00772 11.3488 1.00772 15.0088 1.00772Z" fill="white"/>
<path id="Vector_2" d="M18.4298 9.20034C18.1363 8.91079 17.8893 8.6637 17.6422 8.41275C17.2986 8.06528 17.2754 7.59813 17.5843 7.28541C17.897 6.96882 18.3641 6.98427 18.7116 7.32788C19.3949 8.00737 20.0744 8.68686 20.7539 9.37022C21.1207 9.74085 21.1246 10.1771 20.7578 10.54C20.0783 11.2234 19.3988 11.9029 18.7155 12.5824C18.368 12.9298 17.9047 12.953 17.5881 12.6403C17.2677 12.3237 17.2908 11.8565 17.646 11.4975C17.8815 11.262 18.1132 11.0265 18.3487 10.7871C18.3564 10.7794 18.3564 10.7639 18.368 10.7176C18.2831 10.7176 18.202 10.7176 18.1248 10.7176C16.3797 10.7176 14.6308 10.7176 12.8857 10.7176C12.3645 10.7176 12.0286 10.3972 12.0402 9.93002C12.0518 9.53623 12.3568 9.21965 12.7506 9.20034C12.8278 9.19648 12.9012 9.19648 12.9784 9.19648C14.6964 9.19648 16.4144 9.19648 18.1325 9.19648C18.2136 9.20034 18.2908 9.20034 18.4298 9.20034Z" fill="white"/>
</g>
</g>
</svg>
