<svg width="90" height="27" viewBox="0 0 90 27" fill="none" xmlns="http://www.w3.org/2000/svg">
<path d="M90.0001 0.263916H68.8223L63.5278 5.55837V9.0861L84.7114 21.436H63.5278V26.7305H84.7056L90.0001 21.4417V17.9083L68.828 5.55837H90.0001V0.263916Z" fill="white"/>
<path d="M21.1549 10.8528H5.30017V5.55265H21.1549V0.263916H0V26.7362H21.1549L26.4551 21.4074V16.1473L21.1549 10.8528ZM21.1549 21.4417H5.30017V16.1473H21.1549V21.4417Z" fill="white"/>
<path d="M26.4723 5.54693V10.8471H21.1721V0.263916L26.4723 5.54693Z" fill="#0033A0"/>
<path d="M52.9389 0.263916H37.0613L31.7668 5.55265V26.7076H37.0556V16.1473H52.9389V26.7305H58.2334V5.57552L52.9389 0.263916ZM52.9389 10.8528H37.0556V5.55265H52.9389V10.8528Z" fill="white"/>
</svg>
