<svg width="24" height="17" viewBox="0 0 24 17" fill="none" xmlns="http://www.w3.org/2000/svg">
<path d="M24 14.8148V2.1164C24 0.945326 23.0547 0 21.8836 0H2.1164C0.945326 0 0 0.945326 0 2.1164V14.8148C0 15.9859 0.945326 16.9312 2.1164 16.9312H21.8836C23.0547 16.9312 24 15.9859 24 14.8148ZM22.1517 1.9612C22.6173 2.42681 22.3633 2.90653 22.1093 3.14638L16.381 8.39506L21.8836 14.1235C22.0529 14.321 22.1658 14.6314 21.9683 14.843C21.7848 15.0688 21.3616 15.0547 21.1781 14.9136L15.0123 9.65079L11.9929 12.4021L8.98765 9.65079L2.82187 14.9136C2.63845 15.0547 2.21517 15.0688 2.03175 14.843C1.83422 14.6314 1.94709 14.321 2.1164 14.1235L7.61905 8.39506L1.89065 3.14638C1.63668 2.90653 1.38272 2.42681 1.84832 1.9612C2.31393 1.49559 2.79365 1.72134 3.18871 2.05996L11.9929 9.17107L20.8113 2.05996C21.2063 1.72134 21.6861 1.49559 22.1517 1.9612Z" fill="#D2D2D2"/>
</svg>
