<svg width="101" height="86" viewBox="0 0 101 86" fill="none" xmlns="http://www.w3.org/2000/svg">
<path fill-rule="evenodd" clip-rule="evenodd" d="M73.6333 35.2609C74.3235 35.1288 75.0475 35.0661 75.7926 35.0661C79.0044 35.0661 81.9157 36.3617 84.0202 38.4629C86.124 40.5596 87.4268 43.4711 87.4268 46.683C87.4268 49.8939 86.1243 52.8055 84.0202 54.9094C81.9166 57.0127 79.0053 58.3154 75.7935 58.3154C72.5825 58.3154 69.6781 57.013 67.5746 54.9094C65.4704 52.8058 64.1676 49.8939 64.1676 46.683C64.1676 45.958 64.2305 45.2618 64.3489 44.5998C64.4182 44.203 64.5093 43.8131 64.6202 43.4298L75.1662 47.3309H75.1737L75.1803 47.3375H75.1869H75.1938H75.2046L75.2112 47.3444H75.225L75.2321 47.351H75.239H75.2456L75.2522 47.3582H75.2597H75.2663H75.2729H75.2798L75.2864 47.3651H75.2936H75.3074H75.314L75.3214 47.3717H75.3349H75.3418H75.3487H75.3625L75.3691 47.3783H75.3766H75.3832H75.3898H75.3967H75.4039H75.4105H75.4174H75.4239H75.4383H75.4449H75.4515H75.4659H75.4725H75.4869H75.4935H75.5058H75.5199H75.5267H75.5402H75.5474H75.5612H75.5678H75.575L75.5819 47.3717H75.5885H75.5951H75.6026H75.6092H75.6158H75.6227L75.6436 47.3651H75.6502L75.6646 47.3582H75.6712H75.685H75.6919L75.6988 47.351H75.7057H75.7122L75.7194 47.3444H75.7263H75.7326H75.7395L75.7467 47.3375H75.7605V47.3309H75.7671H75.7743H75.7812L75.7878 47.3237L75.8022 47.3168H75.8088L75.8225 47.3103H75.8297L75.8435 47.3037L75.8645 47.2962V47.2899L75.8855 47.283L75.899 47.2761L75.9059 47.2692L75.9409 47.2488L75.9544 47.2413H75.9613L75.9754 47.2278L76.0101 47.1997L76.0311 47.1856L76.0449 47.1718L76.059 47.1574H76.0659L76.0794 47.1439L76.0935 47.1295L76.1076 47.1157L76.1216 47.1017L76.1351 47.0882V47.0813L76.1495 47.0672L76.1633 47.0531L76.1705 47.0462L76.1771 47.0324L76.2053 46.9977L76.2187 46.9836V46.9767L76.2262 46.9632L76.2466 46.9278L76.2538 46.9212L76.2604 46.9075L76.2673 46.8868H76.2739L76.2811 46.8658L76.288 46.8517V46.8448L76.2943 46.831L76.3012 46.8244V46.8101L76.3083 46.8035V46.7966V46.7894V46.7828H76.3149V46.769L76.3218 46.7618V46.7549V46.7483V46.7417L76.3287 46.7342V46.7276V46.721L76.3356 46.7142V46.7073V46.6932V46.6869L76.3425 46.6725V46.6659L76.3491 46.6449V46.638V46.6245V46.6171L76.3557 46.6105V46.6039V46.597V46.5898V46.5832V46.5694V46.5622V46.5484V46.5418V46.5274V46.5209H76.3632V46.514V46.4999V46.493V46.4789V46.4723H76.3557V46.4657V46.4513V46.4447V46.4309V46.4237V46.4169V46.4103V46.4037V46.3962V46.3896L76.3491 46.3758V46.3686V46.362V46.3482L76.3425 46.341V46.3341V46.3207V46.3132L76.3356 46.2997V46.2928V46.2859V46.279L76.3287 46.2724V46.2658V46.2583L76.3218 46.2517V46.2451V46.2382L76.3149 46.2316V46.2245V46.2176V46.211L76.3083 46.2044V46.1969L72.3796 35.5747C72.7908 35.4488 73.2083 35.3445 73.6333 35.2609ZM70.0252 31.7715C67.8868 32.5657 65.9577 33.8125 64.3693 35.4009L64.3555 35.415C62.7743 37.0031 61.5273 38.9187 60.7406 41.0571C60.5737 41.5237 60.8101 42.0323 61.2695 42.1995L62.9556 42.8262C62.8094 43.3003 62.6907 43.7948 62.5999 44.2962C62.4536 45.0835 62.3844 45.8846 62.3844 46.6929C62.3844 50.398 63.8817 53.7558 66.3126 56.1795C68.7371 58.6037 72.0877 60.1085 75.7929 60.1085C79.4923 60.1085 82.8496 58.6037 85.2807 56.1729L85.2942 56.1588C87.7121 53.728 89.2091 50.3842 89.2091 46.6926C89.2091 42.9931 87.7047 39.6425 85.2738 37.2117L85.2597 37.1913C82.8286 34.7736 79.4851 33.2832 75.7929 33.2832C74.9507 33.2832 74.1146 33.3599 73.2994 33.5131C72.7773 33.6102 72.2615 33.7433 71.7598 33.9036L71.1676 32.3008C71.0004 31.8411 70.4924 31.5971 70.0252 31.7715ZM65.6298 36.6545C66.828 35.4569 68.2489 34.4739 69.8166 33.7774L70.3875 35.3173L70.3944 35.3376L73.968 44.9993L64.3759 41.4536L64.3549 41.4473L62.7458 40.8479C63.4426 39.288 64.4176 37.8737 65.6089 36.6755L65.6298 36.6545ZM16.2217 24.8192C16.2217 25.2864 16.6044 25.6691 17.0783 25.6691H39.1459C39.6197 25.6691 40.0024 25.2864 40.0024 24.8192C40.0024 24.3459 39.6197 23.9626 39.1459 23.9626H17.0783C16.6044 23.9626 16.2217 24.3459 16.2217 24.8192ZM16.2217 31.5063C16.2217 31.9732 16.6044 32.3563 17.0783 32.3563H39.1459C39.6197 32.3563 40.0024 31.9732 40.0024 31.5063C40.0024 31.0331 39.6197 30.6498 39.1459 30.6498H17.0783C16.6044 30.6498 16.2217 31.0331 16.2217 31.5063ZM16.2217 38.1938C16.2217 38.6607 16.6044 39.0503 17.0783 39.0503H53.635C54.1086 39.0503 54.4913 38.661 54.4913 38.1938C54.4913 37.7199 54.1086 37.3372 53.635 37.3372H17.0783C16.6044 37.3372 16.2217 37.7199 16.2217 38.1938ZM16.2217 44.8812C16.2217 45.3472 16.6044 45.7377 17.0783 45.7377H53.635C54.1086 45.7377 54.4913 45.3475 54.4913 44.8812C54.4913 44.4074 54.1086 44.0247 53.635 44.0247H17.0783C16.6044 44.0247 16.2217 44.4074 16.2217 44.8812ZM18.2033 52.4249V52.4123H16.931C16.5276 52.3426 16.2217 51.9914 16.2217 51.5684C16.2217 51.0945 16.6044 50.7112 17.0783 50.7112H53.635C54.1086 50.7112 54.4913 51.0945 54.4913 51.5684C54.4913 52.0416 54.1086 52.4249 53.635 52.4249H18.2033ZM5.00646 60.8518V67.6519H49.5804V78.4215C48.919 78.5879 48.3127 78.9292 47.8116 79.4309C47.1214 80.1205 46.6899 81.075 46.6899 82.1339C46.6899 83.1861 47.1214 84.1469 47.8116 84.8369C48.5009 85.5265 49.4624 85.958 50.5143 85.958C51.5731 85.958 52.5274 85.5265 53.217 84.8369C53.9138 84.1469 54.3387 83.1861 54.3387 82.1339C54.3387 81.0747 53.9138 80.1205 53.217 79.4309C52.7225 78.9295 52.0817 78.5678 51.3639 78.4006V67.6522H96.0219V10.0732H5.00646V50.8779H4.96867V52.4123V59.3173V60.8518H5.00646ZM96.154 8.35919H4.8746C3.75254 8.34571 2.73566 7.87878 1.99031 7.13343C1.23837 6.38059 0.771439 5.34304 0.771439 4.20029C0.771439 3.05815 1.23837 2.0134 1.99031 1.26116C2.74974 0.508621 3.7873 0.0419922 4.93004 0.0419922H96.098C97.241 0.0419922 98.2858 0.508321 99.038 1.26116C99.7902 2.0134 100.257 3.05815 100.257 4.20029C100.257 5.34304 99.7905 6.38059 99.038 7.13343C98.293 7.87848 97.2755 8.34571 96.154 8.35919Z" fill="#1C1B1F"/>
</svg>
